<svg width="241" height="98" viewBox="0 0 241 98" fill="none" xmlns="http://www.w3.org/2000/svg">
<path d="M0.5 0.5H240.5V97.5H0.5V0.5Z" stroke="#131416"/>
<g clip-path="url(#clip0_1_334)">
<path d="M73.7617 54.815L69 43.1855H71.4392L74.9247 51.8614L78.4308 43.1855H80.87L76.0843 54.815H73.7617Z" fill="#131416"/>
<path d="M82.97 47.9779H90.1229C89.9157 47.1924 89.4547 46.494 88.809 45.9875C88.1785 45.4778 87.3854 45.2023 86.5687 45.2095C85.7308 45.1888 84.9125 45.4609 84.2599 45.9774C83.6205 46.4894 83.1678 47.1915 82.97 47.9779ZM82.253 53.2589C81.6812 52.7079 81.2296 52.0485 80.9258 51.3206C80.6221 50.5928 80.4725 49.8118 80.4862 49.0254C80.473 48.2376 80.6204 47.4551 80.9197 46.724C81.219 45.993 81.6641 45.328 82.229 44.7683C82.7764 44.1962 83.44 43.7432 84.1769 43.4386C84.9138 43.1341 85.7076 42.9847 86.507 43.0001C88.0682 42.9825 89.577 43.5525 90.7233 44.5931C91.3182 45.1243 91.7933 45.7717 92.1183 46.4938C92.4432 47.216 92.6108 47.9968 92.6101 48.7862C92.6121 49.1354 92.5891 49.4843 92.5415 49.8303H82.97C83.0056 50.2404 83.1233 50.6395 83.3164 51.0047C83.5095 51.37 83.7742 51.6943 84.0952 51.9588C84.7648 52.5151 85.62 52.809 86.4967 52.784C87.0275 52.8028 87.5562 52.7086 88.0465 52.5081C88.5368 52.3075 88.9771 52.0053 89.3373 51.6221L92.1092 51.6456C91.5939 52.6465 90.8067 53.4881 89.8347 54.0773C88.8575 54.6857 87.7225 55.0049 86.5653 54.9967C85.7637 55.0119 84.9674 54.8656 84.2257 54.5666C83.4839 54.2677 82.8125 53.8226 82.253 53.2589Z" fill="#131416"/>
<path d="M94.1846 54.8148V48.7525C94.1846 46.8911 94.642 45.4912 95.5568 44.5526C96.0243 44.0818 96.5876 43.713 97.2101 43.4704C97.8326 43.2279 98.5002 43.1169 99.1693 43.1448H99.406V45.3576H99.1693C97.3991 45.3576 96.5151 46.4892 96.5174 48.7525V54.8148H94.1846Z" fill="#131416"/>
<path d="M106.342 45.2092C105.832 45.1935 105.325 45.2827 104.852 45.4712C104.379 45.6597 103.952 45.9434 103.598 46.3038C102.893 47.0303 102.5 47.995 102.5 48.9982C102.5 50.0014 102.893 50.9661 103.598 51.6925C103.947 52.0517 104.369 52.3354 104.836 52.5256C105.303 52.7158 105.806 52.8083 106.311 52.7972C106.812 52.8096 107.31 52.7189 107.772 52.5309C108.235 52.343 108.652 52.062 108.998 51.706C109.69 50.9735 110.075 50.0111 110.075 49.0117C110.075 48.0123 109.69 47.0498 108.998 46.3173C108.653 45.9602 108.236 45.6783 107.773 45.4897C107.31 45.3011 106.812 45.2102 106.311 45.2227L106.342 45.2092ZM101.992 44.7445C102.993 43.7594 104.31 43.1454 105.72 43.0073C107.13 42.8691 108.546 43.2153 109.725 43.9868C110.904 44.7583 111.774 45.9074 112.187 47.2383C112.599 48.5691 112.529 49.9992 111.988 51.285C111.447 52.5707 110.469 53.6324 109.219 54.2891C107.97 54.9458 106.528 55.1569 105.138 54.8863C103.748 54.6158 102.496 53.8804 101.597 52.8054C100.697 51.7305 100.205 50.3826 100.205 48.9914C100.192 48.2013 100.344 47.417 100.651 46.6867C100.959 45.9563 101.415 45.2954 101.992 44.7445Z" fill="#131416"/>
<path d="M124.453 54.815H121.801L118.744 50.6523L115.688 54.815H113.012L117.417 48.7696L113.365 43.1855H115.996L118.72 46.9071L121.492 43.1855H124.124L120.072 48.7696L124.453 54.815Z" fill="#131416"/>
<path d="M127.146 54.778V50.888H125.023V49.5408H127.146V49.1266L127.194 47.7087C127.322 46.2964 127.773 45.1872 128.546 44.3812C129.364 43.557 130.464 43.0601 131.633 42.9868V44.4081C130.858 44.525 130.146 44.8938 129.609 45.4555C129.051 46.0832 128.729 46.8796 128.697 47.712L128.649 49.13V49.5442H132.385V50.8914H128.662V54.7813L127.146 54.778Z" fill="#131416"/>
<path d="M136.305 43.189H134.789V54.8184H136.305V43.189Z" fill="#131416"/>
<path d="M148.22 45.7549C147.8 45.3236 147.294 44.9829 146.733 44.7544C146.172 44.526 145.568 44.4148 144.961 44.4279C144.351 44.4171 143.745 44.5292 143.181 44.7575C142.617 44.9857 142.106 45.3252 141.681 45.7549C140.82 46.6254 140.338 47.7913 140.338 49.0049C140.338 50.2186 140.82 51.3844 141.681 52.255C142.103 52.688 142.61 53.0312 143.173 53.263C143.736 53.4947 144.341 53.6102 144.951 53.6022C145.556 53.6135 146.157 53.5018 146.716 53.274C147.275 53.0462 147.78 52.7073 148.199 52.2786C149.047 51.3982 149.519 50.233 149.519 49.0218C149.519 47.8106 149.047 46.6453 148.199 45.765L148.22 45.7549ZM140.614 44.7445C141.615 43.7594 142.932 43.1454 144.342 43.0073C145.753 42.8691 147.168 43.2153 148.347 43.9868C149.526 44.7583 150.396 45.9074 150.809 47.2383C151.222 48.5691 151.151 49.9992 150.61 51.285C150.069 52.5707 149.091 53.6324 147.841 54.2891C146.592 54.9458 145.15 55.1569 143.76 54.8863C142.37 54.6158 141.118 53.8804 140.219 52.8054C139.319 51.7305 138.827 50.3826 138.827 48.9914C138.814 48.2013 138.966 47.417 139.274 46.6867C139.581 45.9563 140.037 45.2954 140.614 44.7445Z" fill="#131416"/>
<path d="M162.928 45.7549C162.508 45.3236 162.002 44.9829 161.44 44.7544C160.879 44.526 160.276 44.4148 159.668 44.4279C159.058 44.4171 158.453 44.5292 157.888 44.7575C157.324 44.9857 156.814 45.3252 156.389 45.7549C155.527 46.6254 155.046 47.7913 155.046 49.0049C155.046 50.2186 155.527 51.3844 156.389 52.255C156.81 52.6884 157.318 53.0317 157.88 53.2635C158.443 53.4953 159.048 53.6106 159.658 53.6022C160.263 53.6138 160.864 53.5022 161.422 53.2744C161.981 53.0466 162.485 52.7075 162.904 52.2786C163.752 51.3986 164.224 50.2332 164.224 49.0218C164.224 47.8103 163.752 46.6449 162.904 45.765L162.928 45.7549ZM155.325 44.7445C156.326 43.7594 157.643 43.1454 159.053 43.0073C160.463 42.8691 161.879 43.2153 163.058 43.9868C164.237 44.7583 165.107 45.9074 165.52 47.2383C165.933 48.5691 165.862 49.9992 165.321 51.285C164.78 52.5707 163.802 53.6324 162.552 54.2891C161.303 54.9458 159.861 55.1569 158.471 54.8863C157.081 54.6158 155.829 53.8804 154.93 52.8054C154.03 51.7305 153.538 50.3826 153.538 48.9914C153.525 48.2013 153.677 47.4169 153.984 46.6865C154.292 45.9562 154.748 45.2953 155.325 44.7445Z" fill="#131416"/>
<path d="M167.549 54.8147V48.7861C167.549 46.9113 167.987 45.5001 168.863 44.5526C169.313 44.0782 169.862 43.7056 170.474 43.4607C171.085 43.2159 171.744 43.1046 172.403 43.1347C172.518 43.1329 172.633 43.1397 172.746 43.1549V44.5762C172.633 44.5579 172.518 44.55 172.403 44.5526C171.94 44.5338 171.479 44.6208 171.055 44.8066C170.632 44.9924 170.259 45.2721 169.964 45.6236C169.365 46.3354 169.065 47.3895 169.065 48.7861V54.8147H167.549Z" fill="#131416"/>
<path d="M171.45 53.5214H171.707C171.794 53.5303 171.882 53.5114 171.957 53.4675C171.979 53.4508 171.996 53.4292 172.007 53.4046C172.019 53.38 172.024 53.353 172.022 53.3261C172.023 53.2901 172.012 53.2549 171.992 53.225C171.969 53.1947 171.938 53.1714 171.902 53.1577C171.833 53.1407 171.761 53.1339 171.69 53.1374H171.45V53.5214ZM171.237 54.2455V52.9623H171.69C171.805 52.9562 171.921 52.9675 172.033 52.996C172.099 53.0198 172.157 53.0633 172.197 53.1206C172.237 53.176 172.258 53.2417 172.259 53.3092C172.26 53.3549 172.251 53.4003 172.233 53.4425C172.216 53.4848 172.19 53.5231 172.156 53.5551C172.083 53.6256 171.985 53.6664 171.882 53.6696C171.924 53.6856 171.962 53.7096 171.995 53.7403C172.068 53.8177 172.132 53.9024 172.187 53.9929L172.348 54.2455H172.091L171.974 54.0434C171.92 53.9306 171.844 53.8288 171.751 53.7437C171.702 53.7104 171.643 53.6949 171.583 53.6999H171.45V54.2455H171.237ZM171.772 52.5885C171.598 52.5902 171.426 52.6353 171.275 52.7198C171.114 52.803 170.981 52.9306 170.894 53.0869C170.804 53.2382 170.757 53.4102 170.757 53.5854C170.757 53.759 170.803 53.9295 170.89 54.0805C170.978 54.2358 171.109 54.3632 171.268 54.4476C171.421 54.5358 171.595 54.5823 171.772 54.5823C171.949 54.5823 172.123 54.5358 172.276 54.4476C172.435 54.3632 172.566 54.2358 172.654 54.0805C172.738 53.9286 172.783 53.7585 172.784 53.5854C172.784 53.4107 172.738 53.2389 172.65 53.0869C172.562 52.9314 172.43 52.804 172.269 52.7198C172.124 52.6386 171.96 52.5935 171.793 52.5885H171.772ZM171.772 52.3931C171.981 52.3939 172.186 52.446 172.369 52.5447C172.561 52.6463 172.719 52.7994 172.825 52.9859C172.93 53.1692 172.985 53.3754 172.986 53.5854C172.987 53.7935 172.931 53.9981 172.825 54.1781C172.723 54.366 172.566 54.5205 172.376 54.6227C172.191 54.7242 171.983 54.7775 171.772 54.7775C171.561 54.7775 171.353 54.7242 171.168 54.6227C170.982 54.5167 170.83 54.3615 170.729 54.1748C170.623 53.9935 170.566 53.7879 170.566 53.5786C170.566 53.3694 170.623 53.1638 170.729 52.9825C170.836 52.796 170.994 52.643 171.185 52.5413C171.372 52.4421 171.581 52.3911 171.793 52.3931H171.772Z" fill="#131416"/>
</g>
<defs>
<clipPath id="clip0_1_334">
<rect width="104" height="12" fill="white" transform="translate(69 43)"/>
</clipPath>
</defs>
</svg>
