<svg width="241" height="98" viewBox="0 0 241 98" fill="none" xmlns="http://www.w3.org/2000/svg">
<path d="M0.5 0.5H240.5V97.5H0.5V0.5Z" stroke="#131416"/>
<g clip-path="url(#clip0_1_364)">
<path fill-rule="evenodd" clip-rule="evenodd" d="M92.0034 41.0129L72.129 48.9327C72.0891 48.9493 72.0558 48.9786 72.0343 49.0161C72.0117 49.05 71.9998 49.0899 72 49.1307C71.9996 49.1715 72.0116 49.2114 72.0343 49.2452C72.0572 49.2797 72.0903 49.306 72.129 49.3205L78.0298 51.4526C78.0613 51.4653 78.0958 51.4692 78.1294 51.464C78.1624 51.4588 78.1937 51.4459 78.2209 51.4264L89.4148 43.2546C89.4176 43.2534 89.4207 43.2528 89.4238 43.2528C89.4269 43.2528 89.4299 43.2534 89.4328 43.2546C89.439 43.2563 89.4447 43.2597 89.4491 43.2644C89.4502 43.267 89.4507 43.2698 89.4507 43.2726C89.4507 43.2754 89.4502 43.2782 89.4491 43.2808C89.4514 43.2866 89.4514 43.293 89.4491 43.2988L79.5405 51.9337C79.5176 51.9536 79.4993 51.9781 79.4866 52.0057C79.4747 52.0335 79.4692 52.0637 79.4703 52.094V56.6921C79.4691 56.7337 79.4817 56.7746 79.5062 56.8083C79.5307 56.8425 79.5648 56.8687 79.6042 56.8835C79.6436 56.8976 79.6864 56.8988 79.7266 56.887C79.7668 56.8753 79.8022 56.8512 79.8279 56.8181L82.6877 53.2869C82.7143 53.2546 82.7502 53.2312 82.7905 53.2198C82.8309 53.2067 82.8743 53.2067 82.9147 53.2198L86.56 54.5436C86.6081 54.5632 86.6621 54.5632 86.7102 54.5436C86.7575 54.5218 86.7953 54.4834 86.8164 54.4356L92.268 41.2779C92.2826 41.2416 92.286 41.2017 92.2778 41.1634C92.2709 41.1243 92.2521 41.0882 92.2239 41.0603C92.1966 41.0315 92.1613 41.0115 92.1226 41.0031C92.0838 40.9946 92.0435 40.998 92.0067 41.0129" fill="#131416"/>
<path d="M98.2848 42.6089H96.4883L96.5144 53.5723H98.3109L98.2848 42.6089Z" fill="#131416"/>
<path d="M103.94 45.6836C103.032 45.6836 102.201 46.0109 101.68 46.6654V45.8472H99.9863L100.006 53.5707H101.7L101.687 48.4572C101.845 48.0881 102.109 47.7746 102.445 47.5566C102.782 47.3386 103.175 47.226 103.576 47.2332C104.654 47.2332 105.271 48.0006 105.275 49.2213L105.284 53.5707H106.978L106.967 48.9513C106.967 46.955 105.787 45.6901 103.94 45.695" fill="#131416"/>
<path d="M113.974 45.814L111.629 51.227L109.276 45.8271H107.398L110.896 53.5424H112.39L115.864 45.8091L113.974 45.814Z" fill="#131416"/>
<path d="M120.068 45.6461C119.081 45.6625 118.136 46.0457 117.415 46.7215C116.694 47.3972 116.25 48.3171 116.168 49.3027C116.086 50.2883 116.373 51.2692 116.972 52.055C117.572 52.8407 118.441 53.3753 119.412 53.5548C120.383 53.7343 121.385 53.546 122.225 53.0265C123.065 52.507 123.682 51.6933 123.957 50.7434C124.232 49.7935 124.145 48.7751 123.712 47.8861C123.28 46.9971 122.533 46.3008 121.617 45.9325C121.125 45.7341 120.598 45.6368 120.068 45.6461ZM120.083 52.1031C118.715 52.1031 117.756 51.0427 117.754 49.6682C117.753 48.2937 118.698 47.2252 120.072 47.2137C121.445 47.2023 122.384 48.2757 122.388 49.6502C122.391 51.0247 121.439 52.0916 120.088 52.0949L120.083 52.1031Z" fill="#131416"/>
<path d="M127.009 45.7769H125.315L125.337 53.5003H127.029L127.009 45.7769Z" fill="#131416"/>
<path d="M127.009 42.7988H125.315V44.3664H127.009V42.7988Z" fill="#131416"/>
<path d="M132.408 47.1905C132.853 47.1874 133.29 47.3136 133.664 47.5537C134.039 47.7939 134.336 48.1378 134.52 48.5437L135.99 47.7387C135.646 47.0861 135.128 46.5418 134.494 46.1663C133.859 45.7908 133.134 45.5988 132.397 45.6114C130.094 45.6147 128.347 47.3541 128.347 49.6433C128.347 51.9325 130.119 53.6539 132.43 53.6507C133.166 53.6609 133.891 53.4661 134.523 53.0879C135.156 52.7097 135.671 52.163 136.011 51.5087L134.532 50.7037C134.35 51.1111 134.055 51.457 133.681 51.6993C133.308 51.9416 132.872 52.0698 132.426 52.0683C131.058 52.0683 130.084 51.008 130.081 49.6335C130.078 48.259 131.046 47.1905 132.417 47.179" fill="#131416"/>
<path d="M140.906 45.5918C138.566 45.5918 136.885 47.3492 136.899 49.6204C136.899 51.962 138.587 53.6327 140.923 53.6278C142.531 53.6278 143.74 52.9241 144.428 51.8278L143.141 50.905C142.742 51.584 142.015 52.0814 140.942 52.0847C139.665 52.0847 138.646 51.2551 138.566 49.9886L144.609 49.9739C144.624 49.7284 144.624 49.5877 144.624 49.4175C144.624 46.9336 142.92 45.5934 140.905 45.5967L140.906 45.5918ZM138.636 48.7499C138.865 47.6045 139.861 47.0301 140.849 47.0301C141.837 47.0301 142.727 47.6274 142.915 48.7385L138.636 48.7499Z" fill="#131416"/>
<path d="M165.99 45.5309H165.93C165.403 45.5268 164.881 45.6276 164.394 45.8274C163.907 46.0273 163.464 46.3223 163.091 46.6952C162.719 47.0681 162.424 47.5115 162.224 47.9996C162.024 48.4877 161.923 49.0107 161.927 49.5383V49.5595C161.924 50.0883 162.026 50.6125 162.227 51.1014C162.428 51.5903 162.724 52.0341 163.099 52.4069C163.473 52.7797 163.918 53.074 164.407 53.2726C164.896 53.4712 165.42 53.5701 165.948 53.5636H165.977C166.505 53.5709 167.028 53.4725 167.517 53.2741C168.006 53.0757 168.45 52.7814 168.824 52.4084C169.197 52.0358 169.493 51.5924 169.694 51.1042C169.895 50.6159 169.996 50.0925 169.993 49.5644V49.5383C169.996 49.0115 169.895 48.4893 169.695 48.0022C169.494 47.5151 169.2 47.0727 168.827 46.7009C168.455 46.3283 168.013 46.0336 167.526 45.8338C167.039 45.6341 166.518 45.5334 165.992 45.5374L165.99 45.5309ZM165.971 51.9944C164.6 51.9944 163.645 50.934 163.642 49.5612C163.638 48.1883 164.591 47.1165 165.958 47.1067C167.325 47.0969 168.27 48.1686 168.274 49.5432C168.277 50.9177 167.325 51.9846 165.971 51.9878V51.9944Z" fill="#131416"/>
<path d="M158.995 45.7031V46.4133C158.454 45.8586 157.653 45.5526 156.73 45.5542C154.499 45.5542 152.885 47.2756 152.869 49.4421C152.858 49.9547 152.951 50.4641 153.142 50.9399C153.333 51.4155 153.617 51.8477 153.979 52.2104C154.341 52.5731 154.772 52.8588 155.247 53.0503C155.721 53.2419 156.23 53.3353 156.741 53.3251C157.667 53.3251 158.466 52.9978 159.003 52.4235V53.3382C159.003 54.5409 158.35 55.1839 157.465 55.3803C155.26 55.7763 153.89 55.1103 153.89 55.1103L153.349 56.4979C154.136 56.9888 156.578 57.1295 157.711 56.8792C159.345 56.5912 160.703 55.521 160.698 53.3529L160.684 45.7015L158.995 45.7031ZM159.006 50.6775C158.788 51.0234 158.482 51.3057 158.121 51.4961C157.759 51.6865 157.354 51.7783 156.945 51.7624C155.608 51.7624 154.634 50.7643 154.618 49.4372C154.61 49.1286 154.665 48.8216 154.781 48.5356C154.894 48.249 155.064 47.9884 155.281 47.7698C155.498 47.5512 155.757 47.379 156.042 47.2636C156.327 47.1483 156.633 47.0923 156.941 47.0989C157.347 47.0827 157.75 47.1718 158.112 47.3576C158.473 47.5434 158.781 47.8195 159.005 48.1592L159.006 50.6775Z" fill="#131416"/>
<path d="M147.772 51.9947L150.082 48.853C150.547 48.2426 151.29 47.2166 151.429 46.9925C152.073 45.9272 152.151 44.808 151.592 43.6904C151.137 42.7806 150.332 42.3371 149.34 42.2177C147.95 42.0409 146.505 42.6857 145.852 44.0045C145.7 44.2916 145.6 44.6036 145.558 44.9258L147.039 45.2531C147.062 45.1892 147.083 45.1369 147.098 45.0894C147.168 44.8198 147.298 44.5695 147.478 44.3568C147.658 44.1441 147.883 43.9745 148.137 43.8605C148.677 43.6135 149.453 43.71 149.871 44.0716C150.572 44.682 150.562 45.708 150.054 46.3625C149.969 46.4738 145.585 52.0699 145.585 52.0699C145.544 52.1188 145.522 52.1811 145.523 52.245V53.4837L152.028 53.4674V51.9947H147.772Z" fill="#131416"/>
</g>
<defs>
<clipPath id="clip0_1_364">
<rect width="98" height="16" fill="white" transform="translate(72 41)"/>
</clipPath>
</defs>
</svg>
