<svg width="241" height="98" viewBox="0 0 241 98" fill="none" xmlns="http://www.w3.org/2000/svg">
<path d="M0.5 0.5H240.5V97.5H0.5V0.5Z" stroke="#131416"/>
<g clip-path="url(#clip0_1_391)">
<path d="M102.67 44.3336L98.3669 41.3916C98.0002 41.1413 97.5614 41.0068 97.1114 41.0068C96.6614 41.0068 96.2226 41.1413 95.8559 41.3916L94.4551 42.3484L92.932 43.3867L91.5531 44.3336C91.2722 44.5261 91.0433 44.78 90.8851 45.0744C90.7269 45.3687 90.6442 45.695 90.6436 46.0262V51.9879C90.6438 52.0647 90.6253 52.1406 90.5896 52.2094C90.5538 52.2782 90.5019 52.338 90.4378 52.3842L88.9443 53.3718L90.3748 54.3471L91.3833 53.6792C91.6641 53.4871 91.8932 53.2334 92.0514 52.9392C92.2095 52.6451 92.2923 52.3189 92.2927 51.9879V46.0262C92.2929 45.9471 92.3126 45.8692 92.3501 45.7988C92.3877 45.7285 92.4421 45.6676 92.5088 45.6212L96.8117 42.6805C96.8991 42.6204 97.0039 42.5881 97.1114 42.5881C97.2189 42.5881 97.3238 42.6204 97.4111 42.6805L98.5341 43.4472L99.9633 44.4225L101.715 45.62C101.783 45.6658 101.838 45.7265 101.875 45.797C101.913 45.8675 101.933 45.9457 101.933 46.025V51.9879C101.933 52.0669 101.913 52.1449 101.875 52.2151C101.837 52.2854 101.783 52.3459 101.715 52.3916L97.4111 55.3212C97.3166 55.3837 97.2035 55.4152 97.0887 55.411C96.974 55.4067 96.8637 55.367 96.7744 55.2977L95.955 54.8039L94.513 55.8027L95.8559 56.615C96.2226 56.8655 96.6614 57.0001 97.1114 57.0001C97.5614 57.0001 98.0003 56.8655 98.3669 56.615L102.67 53.6743C102.95 53.4826 103.179 53.2297 103.337 52.9365C103.495 52.6432 103.578 52.3181 103.579 51.9879V46.0262C103.579 45.6949 103.496 45.3685 103.338 45.0741C103.18 44.7797 102.951 44.5258 102.67 44.3336Z" fill="#131416"/>
<path d="M95.6446 54.6176L97.0262 53.6732C97.3062 53.4814 97.5347 53.2284 97.6928 52.9352C97.8509 52.642 97.9341 52.3169 97.9356 51.9868V46.025C97.9354 45.9478 97.954 45.8717 97.9899 45.8026C98.0259 45.7336 98.0782 45.6736 98.1427 45.6275L99.6323 44.6398L98.2032 43.6645L97.196 44.3312C96.9152 44.5237 96.6864 44.7776 96.5284 45.072C96.3705 45.3664 96.288 45.6927 96.2878 46.0238V51.9868C96.2879 52.0658 96.2682 52.1438 96.2303 52.214C96.1925 52.2843 96.1377 52.3448 96.0704 52.3905L91.7675 55.3201C91.6801 55.3802 91.5753 55.4125 91.4678 55.4125C91.3603 55.4125 91.2555 55.3802 91.1681 55.3201L90.0451 54.5534L88.6185 53.5818L86.8665 52.3843C86.8001 52.3392 86.7458 52.2797 86.708 52.2106C86.6702 52.1415 86.65 52.0648 86.6491 51.9868V46.025C86.6487 45.9459 86.6681 45.8677 86.7057 45.7972C86.7433 45.7268 86.798 45.666 86.8652 45.6201L91.1681 42.6794C91.2635 42.616 91.3778 42.584 91.4938 42.5882C91.6097 42.5924 91.7211 42.6327 91.8113 42.7028L92.6062 43.1855L94.0662 42.1979L92.7284 41.388C92.3618 41.1375 91.923 41.0029 91.4729 41.0029C91.0229 41.0029 90.5841 41.1375 90.2175 41.388L85.9095 44.3324C85.6283 44.5246 85.3991 44.7785 85.2409 45.0729C85.0827 45.3673 85.0001 45.6938 85 46.025V51.9868C85.0002 52.318 85.0829 52.6444 85.2411 52.9388C85.3993 53.2332 85.6284 53.4871 85.9095 53.6793L90.2123 56.6201C90.5789 56.8706 91.0178 57.0052 91.4678 57.0052C91.9178 57.0052 92.3567 56.8706 92.7233 56.6201L94.1936 55.6152L95.6433 54.6275L95.6446 54.6176Z" fill="#131416"/>
<path d="M113.511 42.8804H110.303V44.7038C110.303 44.9096 110.219 45.1073 110.07 45.2548C109.92 45.4024 109.717 45.4882 109.503 45.494L108.648 45.5149V47.9483H110.303V52.3162C110.303 55.0767 111.441 55.9705 116.201 55.673V53.1668C113.78 53.4051 113.593 52.7693 113.593 51.9952V47.9446H116.201V45.4619H113.511V42.8804Z" fill="#131416"/>
<path d="M126.419 41.2207C125.261 41.2207 124.626 41.4676 124.626 42.78C124.626 44.0923 125.259 44.3392 126.419 44.3392C127.56 44.3392 128.156 44.0602 128.156 42.78C128.156 41.4627 127.56 41.2207 126.419 41.2207Z" fill="#131416"/>
<path d="M128.036 45.4619H124.787V55.5903H128.036V45.4619Z" fill="#131416"/>
<path d="M136.395 45.2827C134.76 45.2827 133.726 45.8185 133.229 46.4345V41.5493H130.023V55.5901C130.059 55.5901 130.093 55.5901 130.129 55.5826H130.273C130.632 55.5824 130.984 55.4836 131.286 55.2979C131.589 55.1122 131.83 54.8473 131.98 54.5345V54.5271C132.006 54.474 132.046 54.4282 132.096 54.394C132.146 54.3598 132.204 54.3383 132.264 54.3315C132.325 54.3247 132.387 54.3328 132.443 54.3552C132.5 54.3775 132.549 54.4133 132.588 54.4592C133.202 55.174 134.059 55.6012 135.276 55.7172C135.529 55.7508 135.784 55.7681 136.039 55.7691C137.88 55.7691 139.05 55.0222 139.751 53.9419C139.79 53.8839 139.828 53.8185 139.864 53.7641L139.936 53.6333C139.989 53.537 140.038 53.4394 140.084 53.3382L140.117 53.2641C140.171 53.1407 140.218 53.0172 140.263 52.8938C140.263 52.8802 140.272 52.8666 140.276 52.853C140.321 52.7209 140.362 52.5864 140.397 52.4493C140.397 52.432 140.406 52.4172 140.41 52.4012C140.438 52.2864 140.464 52.1703 140.486 52.0518C140.495 52.0049 140.505 51.958 140.514 51.911C140.523 51.8641 140.524 51.837 140.531 51.7999C140.6 51.3718 140.636 50.9393 140.638 50.5061C140.638 47.9036 139.665 45.2827 136.395 45.2827ZM135.299 53.2061C133.498 53.2061 133.209 52.1147 133.209 50.5061C133.209 48.9567 133.437 47.8246 135.279 47.8246C137.037 47.8246 137.326 48.9357 137.326 50.5061C137.326 52.0938 137.037 53.2061 135.299 53.2061Z" fill="#131416"/>
<path d="M146.762 45.2827C142.913 45.2827 142.002 46.7716 142.002 48.937H145.147C145.147 48.1222 145.519 47.5272 146.844 47.5272C148.251 47.5272 148.707 48.1444 148.707 49.3136L145.933 49.5914C142.975 49.8901 141.588 50.7025 141.588 52.6506C141.588 54.7753 143.492 55.7691 145.974 55.7691C147.581 55.7691 148.645 55.321 149.373 54.4741C149.411 54.4279 149.461 54.3919 149.517 54.3693C149.574 54.3468 149.636 54.3385 149.697 54.3454C149.758 54.3522 149.816 54.3738 149.866 54.4082C149.915 54.4426 149.955 54.4887 149.981 54.542C150.132 54.8548 150.373 55.1197 150.675 55.3054C150.978 55.4911 151.329 55.5899 151.688 55.5901H151.934V49.8506C151.931 47.2284 151.264 45.2827 146.762 45.2827ZM146.633 53.5839C145.453 53.5839 144.961 53.1469 144.961 52.5309C144.961 52.0543 145.354 51.6975 146.633 51.5778L148.703 51.3395C148.683 52.5914 148.083 53.5839 146.633 53.5839Z" fill="#131416"/>
<path d="M157 41.5493H153.773V55.5901H157V41.5493Z" fill="#131416"/>
<path d="M123.683 45.2666C123.579 45.2666 123.483 45.274 123.382 45.2777C122.561 45.2304 121.746 45.4476 121.067 45.895C120.774 46.0764 120.511 46.3 120.289 46.558C120.25 46.6038 120.2 46.6395 120.144 46.6617C120.087 46.6839 120.025 46.692 119.965 46.685C119.904 46.6781 119.846 46.6565 119.796 46.6222C119.746 46.5879 119.706 46.542 119.68 46.4888C119.528 46.1756 119.286 45.9107 118.982 45.7256C118.678 45.5404 118.326 45.4429 117.966 45.4444H117.72V45.4678H117.711V55.5913H120.938V50.4061C120.938 49.0555 121.311 47.7654 123.732 48.0036V45.3024H123.689C123.687 45.2802 123.686 45.2666 123.683 45.2666Z" fill="#131416"/>
</g>
<defs>
<clipPath id="clip0_1_391">
<rect width="72" height="16" fill="white" transform="translate(85 41)"/>
</clipPath>
</defs>
</svg>
