<svg width="241" height="98" viewBox="0 0 241 98" fill="none" xmlns="http://www.w3.org/2000/svg">
<path d="M0.5 0.5H240.5V97.5H0.5V0.5Z" stroke="#131416"/>
<g clip-path="url(#clip0_1_380)">
<path d="M72.3373 47.08C72.3373 45.0898 71.007 43.2819 68.485 43.2673C66.788 43.2673 61.697 43.2505 60 43.2505V54.7706H62.0188V50.9264H67.3595L70.4804 54.7706H72.8796V54.6238L69.6377 50.6957C71.6722 50.251 72.3451 48.6572 72.3451 47.08H72.3373ZM62.0266 48.9675V45.2869H68.4928C69.7606 45.2869 70.3263 46.2076 70.3263 47.1283C70.3263 48.049 69.7762 48.9696 68.4928 48.9696L62.0266 48.9675Z" fill="#131416"/>
<path d="M86.3229 43.2547C84.6415 43.2547 79.5661 43.2715 77.8847 43.2715V54.7748H79.9016V51.3856H86.3229C91.566 51.3856 91.5504 43.2505 86.3229 43.2505V43.2547ZM86.3229 49.3975H79.9016V45.3205H86.3229C88.8898 45.3205 88.9054 49.3975 86.3229 49.3975Z" fill="#131416"/>
<path d="M123.198 48.8231C124.191 48.345 124.589 47.4914 124.589 46.6022C124.589 44.2952 123.015 43.2676 120.904 43.2676H112.435V54.7709H120.904C123.12 54.7709 124.909 53.9509 124.909 51.386C124.909 50.6624 124.45 49.2321 123.198 48.8231ZM114.421 45.239H120.902C122.188 45.239 122.584 46.1261 122.584 46.6525C122.584 47.3089 122.172 47.8857 120.902 47.8857H114.423L114.421 45.239ZM120.902 52.7513H114.423V49.7921H120.904C121.729 49.7921 122.908 50.3332 122.908 51.3692C122.908 52.4535 121.737 52.7513 120.904 52.7513" fill="#131416"/>
<path d="M131.755 43.2676H129.737V54.773H140.652V52.7659H131.755V43.2676Z" fill="#131416"/>
<path d="M147.498 43.2676H145.495V54.773H147.498V43.2676Z" fill="#131416"/>
<path d="M162.625 51.5934C162.336 51.9022 162.008 52.1649 161.65 52.3736C161.247 52.6035 160.819 52.7782 160.376 52.8937C159.873 53.0234 159.357 53.0868 158.839 53.0825C158.16 53.0945 157.485 52.9839 156.84 52.7553C156.307 52.5624 155.814 52.2596 155.389 51.864C155.007 51.5016 154.705 51.0534 154.503 50.5511C154.306 50.0611 154.204 49.5329 154.205 48.9991C154.203 48.4598 154.305 47.926 154.503 47.4304C154.705 46.9282 155.007 46.4799 155.389 46.1175C155.814 45.7219 156.309 45.4217 156.844 45.2346C157.489 45.0108 158.163 44.9031 158.841 44.9158C159.334 44.9134 159.827 44.9711 160.308 45.0878C160.735 45.1909 161.15 45.3457 161.545 45.5492C161.9 45.7334 162.229 45.9729 162.52 46.2602C162.695 46.4368 162.854 46.6313 162.994 46.8411L164.695 45.8302C164.479 45.4948 164.231 45.1855 163.953 44.9074C163.56 44.5125 163.12 44.1754 162.645 43.905C162.116 43.6068 161.553 43.3827 160.971 43.2381C160.307 43.0752 159.628 42.9957 158.946 43.0011C157.969 42.985 156.996 43.151 156.071 43.4918C155.294 43.7795 154.576 44.2244 153.955 44.8026C153.4 45.3267 152.956 45.972 152.652 46.6952C152.348 47.4185 152.19 48.2032 152.19 48.9971C152.19 49.7909 152.348 50.5756 152.652 51.2989C152.956 52.0222 153.4 52.6674 153.955 53.1915C154.575 53.7706 155.294 54.2156 156.071 54.5023C156.992 54.8438 157.961 55.0119 158.935 54.9993C159.637 55.0055 160.338 54.9203 161.022 54.7456C161.617 54.591 162.191 54.3534 162.728 54.0388C163.213 53.7574 163.658 53.4044 164.051 52.9902C164.336 52.6863 164.588 52.3478 164.8 51.9814L163.091 50.9748C162.958 51.2023 162.802 51.4133 162.625 51.6039" fill="#131416"/>
<path d="M103.903 43.2549C103.676 43.2546 103.452 43.3024 103.242 43.3956C103.032 43.4887 102.842 43.6254 102.681 43.7978C102.521 43.9701 102.394 44.1748 102.307 44.4002C102.22 44.6255 102.175 44.867 102.175 45.1109H105.395V49.081C105.336 49.6086 105.227 50.1284 105.072 50.6329C104.87 51.1352 104.567 51.5834 104.186 51.9458C103.76 52.3419 103.267 52.6447 102.733 52.8371C101.668 53.2907 100.482 53.2907 99.417 52.8371C98.8832 52.6447 98.3895 52.3419 97.9638 51.9458C97.5825 51.5834 97.2801 51.1352 97.0782 50.6329C96.9228 50.1284 96.8143 49.6086 96.7544 49.081V43.2549H94.761V49.081C94.7563 49.8747 94.9106 50.6601 95.2136 51.3839C95.5165 52.1077 95.9609 52.7529 96.5165 53.2754C97.1381 53.8524 97.8573 54.2953 98.6348 54.5799C100.22 55.1331 101.926 55.1331 103.511 54.5799C104.288 54.2932 105.007 53.8482 105.628 53.2691C106.183 52.7466 106.628 52.1014 106.931 51.3776C107.233 50.6538 107.388 49.8684 107.383 49.0747V43.2549H103.903Z" fill="#131416"/>
<path d="M174.502 45.1614L169.789 54.7709H167.782L173.384 43.3389V43.2676H176.361L182 54.7709H179.993L178.795 52.3381H175.204C174.971 52.3381 174.74 52.2887 174.524 52.1927C174.309 52.0967 174.113 51.9559 173.948 51.7785C173.783 51.6011 173.652 51.3905 173.563 51.1587C173.473 50.9269 173.427 50.6784 173.427 50.4275H177.855L175.267 45.1614H174.502Z" fill="#131416"/>
</g>
<defs>
<clipPath id="clip0_1_380">
<rect width="122" height="12" fill="white" transform="translate(60 43)"/>
</clipPath>
</defs>
</svg>
